<svg width="661" height="397" viewBox="0 0 661 397" fill="none" xmlns="http://www.w3.org/2000/svg">
  <path
    d="M627.68 313.841C627.68 304.718 635.075 297.323 644.198 297.323C653.32 297.323 660.716 304.718 660.716 313.841C660.716 322.964 653.32 330.359 644.198 330.359C635.075 330.359 627.68 322.964 627.68 313.841Z"
    fill="white" />
  <path
    d="M627.681 280.805C627.681 271.682 635.076 264.287 644.199 264.287C653.321 264.287 660.717 271.682 660.717 280.805C660.717 289.928 653.321 297.323 644.199 297.323C635.076 297.323 627.681 289.928 627.681 280.805Z"
    fill="white" />
  <path
    d="M627.68 247.768C627.68 238.646 635.075 231.25 644.198 231.25C653.32 231.25 660.716 238.646 660.716 247.768C660.716 256.891 653.32 264.286 644.198 264.286C635.075 264.286 627.68 256.891 627.68 247.768Z"
    fill="white" />
  <path
    d="M627.681 214.729C627.681 205.607 635.076 198.211 644.199 198.211C653.321 198.211 660.717 205.607 660.717 214.729C660.717 223.852 653.321 231.247 644.199 231.247C635.076 231.247 627.681 223.852 627.681 214.729Z"
    fill="white" />
  <path d="M660.716 165.174L660.716 198.21L627.68 198.21L627.68 165.174L660.716 165.174Z"
    fill="#190066" />
  <path d="M660.716 132.144L660.716 165.18L627.68 165.18L627.68 132.144L660.716 132.144Z"
    fill="#61DFFF" />
  <path
    d="M631.681 115.624C631.681 122.537 637.285 128.142 644.199 128.142C651.112 128.142 656.717 122.537 656.717 115.624C656.717 108.711 651.112 103.106 644.199 103.106C637.285 103.106 631.681 108.711 631.681 115.624Z"
    stroke="#FFF068" stroke-width="8" />
  <path d="M652.459 74.3301L652.459 90.8481L635.941 90.8481L635.941 74.3301L652.459 74.3301Z"
    fill="#6119EF" />
  <path d="M660.717 33.0381L660.717 66.0741L627.681 66.0741L627.681 33.0381L660.717 33.0381Z"
    fill="#190066" />
  <path
    d="M660.716 4.63299e-07L660.716 33.036L627.68 33.036L627.68 1.90735e-06L660.716 4.63299e-07Z"
    fill="#190066" />
  <path
    d="M594.643 379.911C594.643 370.788 602.038 363.394 611.161 363.394C620.283 363.394 627.679 370.788 627.679 379.911C627.679 389.034 620.283 396.43 611.161 396.43C602.038 396.43 594.643 389.034 594.643 379.911Z"
    fill="white" />
  <path
    d="M594.643 313.841C594.643 304.718 602.038 297.323 611.161 297.323C620.283 297.323 627.679 304.718 627.679 313.841C627.679 322.964 620.283 330.359 611.161 330.359C602.038 330.359 594.643 322.964 594.643 313.841Z"
    fill="white" />
  <path
    d="M594.644 280.805C594.644 271.682 602.039 264.287 611.162 264.287C620.284 264.287 627.68 271.682 627.68 280.805C627.68 289.928 620.284 297.323 611.162 297.323C602.039 297.323 594.644 289.928 594.644 280.805Z"
    fill="white" />
  <path
    d="M594.643 247.768C594.643 238.646 602.038 231.25 611.161 231.25C620.283 231.25 627.679 238.646 627.679 247.768C627.679 256.891 620.283 264.286 611.161 264.286C602.038 264.286 594.643 256.891 594.643 247.768Z"
    fill="#190066" />
  <path d="M616.668 209.226L616.668 220.238L605.656 220.238L605.656 209.226L616.668 209.226Z"
    fill="#190066" />
  <path d="M627.679 165.174L627.679 198.21L594.643 198.21L594.643 165.174L627.679 165.174Z"
    fill="#6119EF" />
  <path d="M627.679 132.144L627.679 165.18L594.643 165.18L594.643 132.144L627.679 132.144Z"
    fill="#6119EF" />
  <path
    d="M611.162 132.142C602.039 132.142 594.644 124.747 594.644 115.624C594.644 106.502 602.039 99.1064 611.162 99.1064C620.284 99.1064 627.68 106.502 627.68 115.624C627.68 124.747 620.284 132.142 611.162 132.142Z"
    fill="#FFF068" />
  <path
    d="M611.161 99.1112C602.039 99.1112 594.643 91.7162 594.643 82.5932C594.643 73.4702 602.039 66.0752 611.161 66.0752C620.284 66.0752 627.679 73.4702 627.679 82.5932C627.679 91.7162 620.284 99.1112 611.161 99.1112Z"
    fill="#FCD6FF" />
  <path d="M627.68 33.0381L627.68 66.0741L594.644 66.0741L594.644 33.0381L627.68 33.0381Z"
    fill="#61DFFF" />
  <path
    d="M561.611 379.911C561.611 370.788 569.007 363.394 578.129 363.394C587.252 363.394 594.647 370.788 594.647 379.911C594.647 389.034 587.252 396.43 578.129 396.43C569.007 396.43 561.611 389.034 561.611 379.911Z"
    fill="white" />
  <path
    d="M561.611 346.874C561.611 337.752 569.007 330.356 578.129 330.356C587.252 330.356 594.647 337.752 594.647 346.874C594.647 355.997 587.252 363.392 578.129 363.392C569.007 363.392 561.611 355.997 561.611 346.874Z"
    fill="white" />
  <path
    d="M561.611 313.841C561.611 304.718 569.007 297.323 578.129 297.323C587.252 297.323 594.647 304.718 594.647 313.841C594.647 322.964 587.252 330.359 578.129 330.359C569.007 330.359 561.611 322.964 561.611 313.841Z"
    fill="#61DFFF" />
  <path
    d="M561.611 280.805C561.611 271.682 569.007 264.287 578.129 264.287C587.252 264.287 594.647 271.682 594.647 280.805C594.647 289.928 587.252 297.323 578.129 297.323C569.007 297.323 561.611 289.928 561.611 280.805Z"
    fill="#190066" />
  <path
    d="M561.611 247.768C561.611 238.646 569.006 231.25 578.129 231.25C587.252 231.25 594.647 238.646 594.647 247.768C594.647 256.891 587.252 264.286 578.129 264.286C569.006 264.286 561.611 256.891 561.611 247.768Z"
    fill="white" />
  <path
    d="M561.611 214.729C561.611 205.607 569.006 198.211 578.129 198.211C587.252 198.211 594.647 205.607 594.647 214.729C594.647 223.852 587.252 231.247 578.129 231.247C569.006 231.247 561.611 223.852 561.611 214.729Z"
    fill="white" />
  <path
    d="M578.129 198.21C569.006 198.21 561.611 190.815 561.611 181.692C561.611 172.57 569.006 165.174 578.129 165.174C587.252 165.174 594.647 172.57 594.647 181.692C594.647 190.815 587.252 198.21 578.129 198.21Z"
    fill="#FFF068" />
  <path d="M594.647 132.144L594.647 165.18L561.611 165.18L561.611 132.144L594.647 132.144Z"
    fill="#190066" />
  <path d="M586.39 107.366L586.39 123.884L569.872 123.884L569.872 107.366L586.39 107.366Z"
    fill="#FF8D4C" />
  <path d="M567.111 93.6112L589.147 93.6112L589.147 71.5752L567.111 71.5752L567.111 93.6112Z"
    stroke="#6119EF" stroke-width="11" />
  <path d="M594.647 33.0381L594.647 66.0741L561.611 66.0741L561.611 33.0381L594.647 33.0381Z"
    fill="#FF8D4C" />
  <path
    d="M528.574 379.911C528.574 370.788 535.969 363.394 545.092 363.394C554.214 363.394 561.61 370.788 561.61 379.911C561.61 389.034 554.214 396.43 545.092 396.43C535.969 396.43 528.574 389.034 528.574 379.911Z"
    fill="#6119EF" />
  <path
    d="M528.574 346.874C528.574 337.752 535.969 330.356 545.092 330.356C554.214 330.356 561.61 337.752 561.61 346.874C561.61 355.997 554.214 363.392 545.092 363.392C535.969 363.392 528.574 355.997 528.574 346.874Z"
    fill="white" />
  <path
    d="M528.574 313.841C528.574 304.718 535.969 297.323 545.092 297.323C554.214 297.323 561.61 304.718 561.61 313.841C561.61 322.964 554.214 330.359 545.092 330.359C535.969 330.359 528.574 322.964 528.574 313.841Z"
    fill="white" />
  <path
    d="M528.574 280.805C528.574 271.682 535.969 264.287 545.092 264.287C554.214 264.287 561.61 271.682 561.61 280.805C561.61 289.928 554.214 297.323 545.092 297.323C535.969 297.323 528.574 289.928 528.574 280.805Z"
    fill="#190066" />
  <path
    d="M528.573 247.768C528.573 238.646 535.969 231.25 545.091 231.25C554.214 231.25 561.609 238.646 561.609 247.768C561.609 256.891 554.214 264.286 545.091 264.286C535.969 264.286 528.573 256.891 528.573 247.768Z"
    fill="white" />
  <path d="M561.609 198.211L561.609 231.247L528.573 231.247L528.573 198.211L561.609 198.211Z"
    fill="#190066" />
  <path d="M553.352 173.434L553.352 189.952L536.834 189.952L536.834 173.434L553.352 173.434Z"
    fill="#6119EF" />
  <path d="M561.61 132.144L561.61 165.18L528.574 165.18L528.574 132.144L561.61 132.144Z"
    fill="#190066" />
  <path d="M561.609 99.1064L561.609 132.142L528.573 132.142L528.573 99.1064L561.609 99.1064Z"
    fill="#6119EF" />
  <path d="M561.609 66.0752L561.609 99.1112L528.573 99.1112L528.573 66.0752L561.609 66.0752Z"
    fill="#61DFFF" />
  <path
    d="M532.734 49.5562C532.734 56.3812 538.267 61.9132 545.091 61.9132C551.916 61.9132 557.449 56.3812 557.449 49.5562C557.449 42.7312 551.916 37.1992 545.091 37.1992C538.267 37.1992 532.734 42.7312 532.734 49.5562Z"
    stroke="#6119EF" stroke-width="8.32143" />
  <path
    d="M495.537 346.873C495.537 337.751 502.932 330.355 512.055 330.355C521.177 330.355 528.573 337.751 528.573 346.873C528.573 355.996 521.177 363.391 512.055 363.391C502.932 363.391 495.537 355.996 495.537 346.873Z"
    fill="white" />
  <path
    d="M495.537 313.841C495.537 304.718 502.932 297.323 512.055 297.323C521.177 297.323 528.573 304.718 528.573 313.841C528.573 322.964 521.177 330.359 512.055 330.359C502.932 330.359 495.537 322.964 495.537 313.841Z"
    fill="white" />
  <path d="M517.561 242.261L517.561 253.273L506.549 253.273L506.549 242.261L517.561 242.261Z"
    fill="#190066" />
  <path d="M528.572 198.211L528.572 231.247L495.536 231.247L495.536 198.211L528.572 198.211Z"
    fill="#FF8D4C" />
  <path
    d="M512.054 198.21C502.932 198.21 495.536 190.815 495.536 181.692C495.536 172.57 502.932 165.174 512.054 165.174C521.177 165.174 528.572 172.57 528.572 181.692C528.572 190.815 521.177 198.21 512.054 198.21Z"
    fill="#FFF068" />
  <path
    d="M512.054 165.18C502.932 165.18 495.536 157.783 495.536 148.661C495.536 139.538 502.932 132.144 512.054 132.144C521.177 132.144 528.572 139.538 528.572 148.661C528.572 157.783 521.177 165.18 512.054 165.18Z"
    fill="#FCD6FF" />
  <path d="M520.315 107.365L520.315 123.883L503.797 123.883L503.797 107.365L520.315 107.365Z"
    fill="#6119EF" />
  <path d="M528.572 66.0752L528.572 99.1112L495.536 99.1112L495.536 66.0752L528.572 66.0752Z"
    fill="#61DFFF" />
  <path
    d="M462.502 346.874C462.502 337.752 469.897 330.356 479.02 330.356C488.142 330.356 495.537 337.752 495.537 346.874C495.537 355.997 488.142 363.392 479.02 363.392C469.897 363.392 462.502 355.997 462.502 346.874Z"
    fill="white" />
  <path
    d="M462.502 280.805C462.502 271.682 469.897 264.287 479.02 264.287C488.142 264.287 495.537 271.682 495.537 280.805C495.537 289.928 488.142 297.323 479.02 297.323C469.897 297.323 462.502 289.928 462.502 280.805Z"
    fill="white" />
  <path d="M495.538 231.249L495.538 264.285L462.502 264.285L462.502 231.249L495.538 231.249Z"
    fill="#6119EF" />
  <path
    d="M479.02 231.247C469.897 231.247 462.502 223.851 462.502 214.729C462.502 205.606 469.897 198.211 479.02 198.211C488.142 198.211 495.537 205.606 495.537 214.729C495.537 223.851 488.142 231.247 479.02 231.247Z"
    fill="#FCD6FF" />
  <path
    d="M479.02 198.211C469.897 198.211 462.502 190.816 462.502 181.693C462.502 172.571 469.897 165.175 479.02 165.175C488.143 165.175 495.538 172.571 495.538 181.693C495.538 190.816 488.143 198.211 479.02 198.211Z"
    fill="#FFF068" />
  <path d="M495.538 132.145L495.538 165.181L462.502 165.181L462.502 132.145L495.538 132.145Z"
    fill="#FF8D4C" />
  <path d="M495.537 99.1074L495.537 132.143L462.502 132.143L462.502 99.1074L495.537 99.1074Z"
    fill="#61DFFF" />
  <path d="M495.538 66.0742L495.538 99.1102L462.502 99.1102L462.502 66.0742L495.538 66.0742Z"
    fill="#190066" />
  <path
    d="M429.465 379.911C429.465 370.788 436.86 363.394 445.983 363.394C455.106 363.394 462.501 370.788 462.501 379.911C462.501 389.034 455.106 396.43 445.983 396.43C436.86 396.43 429.465 389.034 429.465 379.911Z"
    fill="#FF8D4C" />
  <path
    d="M429.465 346.873C429.465 337.751 436.86 330.355 445.983 330.355C455.106 330.355 462.501 337.751 462.501 346.873C462.501 355.996 455.106 363.391 445.983 363.391C436.86 363.391 429.465 355.996 429.465 346.873Z"
    fill="white" />
  <path
    d="M429.465 313.841C429.465 304.718 436.86 297.323 445.983 297.323C455.106 297.323 462.501 304.718 462.501 313.841C462.501 322.964 455.106 330.359 445.983 330.359C436.86 330.359 429.465 322.964 429.465 313.841Z"
    fill="white" />
  <path
    d="M429.465 280.805C429.465 271.682 436.86 264.287 445.983 264.287C455.106 264.287 462.501 271.682 462.501 280.805C462.501 289.928 455.106 297.323 445.983 297.323C436.86 297.323 429.465 289.928 429.465 280.805Z"
    fill="white" />
  <path d="M462.501 231.249L462.501 264.285L429.465 264.285L429.465 231.249L462.501 231.249Z"
    fill="#190066" />
  <path d="M454.243 206.473L454.243 222.991L437.725 222.991L437.725 206.473L454.243 206.473Z"
    fill="#6119EF" />
  <path d="M462.501 165.175L462.501 198.211L429.465 198.211L429.465 165.175L462.501 165.175Z"
    fill="#61DFFF" />
  <path d="M462.501 132.145L462.501 165.181L429.465 165.181L429.465 132.145L462.501 132.145Z"
    fill="#6119EF" />
  <path
    d="M445.983 132.142C436.86 132.142 429.465 124.747 429.465 115.624C429.465 106.502 436.86 99.1064 445.983 99.1064C455.106 99.1064 462.501 106.502 462.501 115.624C462.501 124.747 455.106 132.142 445.983 132.142Z"
    fill="#FCD6FF" />
  <path
    d="M396.43 379.911C396.43 370.788 403.826 363.394 412.948 363.394C422.071 363.394 429.466 370.788 429.466 379.911C429.466 389.034 422.071 396.43 412.948 396.43C403.826 396.43 396.43 389.034 396.43 379.911Z"
    fill="white" />
  <path
    d="M396.43 313.841C396.43 304.718 403.826 297.323 412.948 297.323C422.071 297.323 429.466 304.718 429.466 313.841C429.466 322.964 422.071 330.359 412.948 330.359C403.826 330.359 396.43 322.964 396.43 313.841Z"
    fill="white" />
  <path d="M418.453 275.3L418.453 286.312L407.441 286.312L407.441 275.3L418.453 275.3Z"
    fill="#190066" />
  <path d="M429.466 231.249L429.466 264.285L396.43 264.285L396.43 231.249L429.466 231.249Z"
    fill="#6119EF" />
  <path d="M429.466 198.212L429.466 231.248L396.43 231.248L396.43 198.212L429.466 198.212Z"
    fill="#6119EF" />
  <path d="M429.466 165.175L429.466 198.211L396.43 198.211L396.43 165.175L429.466 165.175Z"
    fill="#6119EF" />
  <path
    d="M412.948 165.18C403.826 165.18 396.43 157.783 396.43 148.661C396.43 139.538 403.826 132.144 412.948 132.144C422.071 132.144 429.466 139.538 429.466 148.661C429.466 157.783 422.071 165.18 412.948 165.18Z"
    fill="#FCD6FF" />
  <path
    d="M412.948 132.142C403.826 132.142 396.43 124.747 396.43 115.624C396.43 106.502 403.826 99.1064 412.948 99.1064C422.071 99.1064 429.466 106.502 429.466 115.624C429.466 124.747 422.071 132.142 412.948 132.142Z"
    fill="#FCD6FF" />
  <path
    d="M363.393 379.911C363.393 370.788 370.789 363.394 379.911 363.394C389.034 363.394 396.429 370.788 396.429 379.911C396.429 389.034 389.034 396.43 379.911 396.43C370.789 396.43 363.393 389.034 363.393 379.911Z"
    fill="white" />
  <path
    d="M363.393 346.873C363.393 337.751 370.789 330.355 379.911 330.355C389.034 330.355 396.429 337.751 396.429 346.873C396.429 355.996 389.034 363.391 379.911 363.391C370.789 363.391 363.393 355.996 363.393 346.873Z"
    fill="#FFF068" />
  <path
    d="M363.393 313.841C363.393 304.718 370.789 297.323 379.911 297.323C389.034 297.323 396.429 304.718 396.429 313.841C396.429 322.964 389.034 330.359 379.911 330.359C370.789 330.359 363.393 322.964 363.393 313.841Z"
    fill="white" />
  <path d="M396.431 264.287L396.431 297.323L363.395 297.323L363.395 264.287L396.431 264.287Z"
    fill="#61DFFF" />
  <path d="M396.429 231.249L396.429 264.285L363.393 264.285L363.393 231.249L396.429 231.249Z"
    fill="#190066" />
  <path d="M396.43 198.211L396.43 231.247L363.394 231.247L363.394 198.211L396.43 198.211Z"
    fill="#190066" />
  <path d="M388.171 173.436L388.171 189.954L371.653 189.954L371.653 173.436L388.171 173.436Z"
    fill="#61DFFF" />
  <path d="M396.429 132.145L396.429 165.181L363.393 165.181L363.393 132.145L396.429 132.145Z"
    fill="#61DFFF" />
  <path d="M396.43 99.1074L396.43 132.143L363.394 132.143L363.394 99.1074L396.43 99.1074Z"
    fill="#190066" />
  <path
    d="M330.356 379.911C330.356 370.788 337.751 363.394 346.874 363.394C355.997 363.394 363.392 370.788 363.392 379.911C363.392 389.034 355.997 396.43 346.874 396.43C337.751 396.43 330.356 389.034 330.356 379.911Z"
    fill="white" />
  <path
    d="M330.358 346.874C330.358 337.752 337.753 330.356 346.876 330.356C355.998 330.356 363.393 337.752 363.393 346.874C363.393 355.997 355.998 363.392 346.876 363.392C337.753 363.392 330.358 355.997 330.358 346.874Z"
    fill="white" />
  <path d="M363.393 264.287L363.393 297.323L330.358 297.323L330.358 264.287L363.393 264.287Z"
    fill="#190066" />
  <path d="M363.392 231.249L363.392 264.285L330.356 264.285L330.356 231.249L363.392 231.249Z"
    fill="#61DFFF" />
  <path d="M363.393 198.211L363.393 231.247L330.357 231.247L330.357 198.211L363.393 198.211Z"
    fill="#6119EF" />
  <path d="M363.392 165.175L363.392 198.211L330.356 198.211L330.356 165.175L363.392 165.175Z"
    fill="#61DFFF" />
  <path
    d="M334.517 148.662C334.517 155.487 340.05 161.019 346.875 161.019C353.699 161.019 359.232 155.487 359.232 148.662C359.232 141.837 353.699 136.305 346.875 136.305C340.05 136.305 334.517 141.837 334.517 148.662Z"
    stroke="#6119EF" stroke-width="8.32143" />
  <path
    d="M297.32 346.874C297.32 337.752 304.715 330.356 313.838 330.356C322.961 330.356 330.356 337.752 330.356 346.874C330.356 355.997 322.961 363.392 313.838 363.392C304.715 363.392 297.32 355.997 297.32 346.874Z"
    fill="white" />
  <path d="M319.348 308.332L319.348 319.344L308.336 319.344L308.336 308.332L319.348 308.332Z"
    fill="#190066" />
  <path d="M330.356 264.287L330.356 297.323L297.32 297.323L297.32 264.287L330.356 264.287Z"
    fill="#6119EF" />
  <path d="M322.097 239.503L322.097 256.021L305.579 256.021L305.579 239.503L322.097 239.503Z"
    fill="#6119EF" />
  <path
    d="M309.732 214.732C309.732 216.999 311.57 218.837 313.838 218.837C316.105 218.837 317.943 216.999 317.943 214.732C317.943 212.465 316.105 210.627 313.838 210.627C311.57 210.627 309.732 212.465 309.732 214.732Z"
    stroke="#6119EF" stroke-width="8.30764" />
  <path d="M330.354 165.175L330.354 198.211L297.319 198.211L297.319 165.175L330.354 165.175Z"
    fill="#190066" />
  <path d="M330.355 132.145L330.355 165.181L297.319 165.181L297.319 132.145L330.355 132.145Z"
    fill="#FFF068" />
  <path
    d="M264.287 379.911C264.287 370.788 271.683 363.394 280.805 363.394C289.928 363.394 297.323 370.788 297.323 379.911C297.323 389.034 289.928 396.43 280.805 396.43C271.683 396.43 264.287 389.034 264.287 379.911Z"
    fill="white" />
  <path
    d="M264.288 346.874C264.288 337.752 271.683 330.356 280.806 330.356C289.928 330.356 297.324 337.752 297.324 346.874C297.324 355.997 289.928 363.392 280.806 363.392C271.683 363.392 264.288 355.997 264.288 346.874Z"
    fill="white" />
  <path d="M297.323 297.323L297.323 330.359L264.287 330.359L264.287 297.323L297.323 297.323Z"
    fill="#190066" />
  <path d="M297.324 264.287L297.324 297.323L264.288 297.323L264.288 264.287L297.324 264.287Z"
    fill="#6119EF" />
  <path d="M297.323 231.249L297.323 264.285L264.287 264.285L264.287 231.249L297.323 231.249Z"
    fill="#61DFFF" />
  <path d="M297.324 198.211L297.324 231.247L264.288 231.247L264.288 198.211L297.324 198.211Z"
    fill="#FCD6FF" />
  <path d="M297.323 165.175L297.323 198.211L264.287 198.211L264.287 165.175L297.323 165.175Z"
    fill="#6119EF" />
  <path d="M297.323 132.145L297.323 165.181L264.287 165.181L264.287 132.145L297.323 132.145Z"
    fill="#190066" />
  <path
    d="M231.25 379.911C231.25 370.788 238.645 363.394 247.768 363.394C256.89 363.394 264.286 370.788 264.286 379.911C264.286 389.034 256.89 396.43 247.768 396.43C238.645 396.43 231.25 389.034 231.25 379.911Z"
    fill="white" />
  <path d="M253.275 341.368L253.275 352.38L242.263 352.38L242.263 341.368L253.275 341.368Z"
    fill="#190066" />
  <path d="M256.028 305.58L256.028 322.098L239.51 322.098L239.51 305.58L256.028 305.58Z"
    fill="#6119EF" />
  <path
    d="M247.768 297.323C238.645 297.323 231.25 289.928 231.25 280.805C231.25 271.682 238.645 264.287 247.768 264.287C256.89 264.287 264.286 271.682 264.286 280.805C264.286 289.928 256.89 297.323 247.768 297.323Z"
    fill="#FCD6FF" />
  <path
    d="M247.768 264.285C238.645 264.285 231.25 256.89 231.25 247.767C231.25 238.645 238.645 231.249 247.768 231.249C256.89 231.249 264.286 238.645 264.286 247.767C264.286 256.89 256.89 264.285 247.768 264.285Z"
    fill="#FFF068" />
  <path d="M264.286 198.211L264.286 231.247L231.25 231.247L231.25 198.211L264.286 198.211Z"
    fill="#190066" />
  <path d="M256.029 173.435L256.029 189.953L239.511 189.953L239.511 173.435L256.029 173.435Z"
    fill="#6119EF" />
  <path
    d="M198.215 379.911C198.215 370.788 205.61 363.394 214.733 363.394C223.856 363.394 231.251 370.788 231.251 379.911C231.251 389.034 223.856 396.43 214.733 396.43C205.61 396.43 198.215 389.034 198.215 379.911Z"
    fill="white" />
  <path d="M220.238 341.368L220.238 352.38L209.226 352.38L209.226 341.368L220.238 341.368Z"
    fill="#190066" />
  <path
    d="M202.376 313.841C202.376 320.666 207.908 326.198 214.733 326.198C221.558 326.198 227.09 320.666 227.09 313.841C227.09 307.016 221.558 301.484 214.733 301.484C207.908 301.484 202.376 307.016 202.376 313.841Z"
    stroke="#FF8D4C" stroke-width="8.32143" />
  <path d="M231.251 264.287L231.251 297.323L198.215 297.323L198.215 264.287L231.251 264.287Z"
    fill="#6119EF" />
  <path
    d="M202.376 247.767C202.376 254.592 207.909 260.124 214.733 260.124C221.558 260.124 227.091 254.592 227.091 247.767C227.091 240.942 221.558 235.41 214.733 235.41C207.909 235.41 202.376 240.942 202.376 247.767Z"
    stroke="#6119EF" stroke-width="8.32143" />
  <path d="M231.251 198.211L231.251 231.247L198.215 231.247L198.215 198.211L231.251 198.211Z"
    fill="#61DFFF" />
  <path d="M231.251 165.175L231.251 198.211L198.215 198.211L198.215 165.175L231.251 165.175Z"
    fill="#61DFFF" />
  <path d="M187.203 374.406L187.203 385.418L176.191 385.418L176.191 374.406L187.203 374.406Z"
    fill="#190066" />
  <path d="M198.213 330.356L198.213 363.392L165.177 363.392L165.177 330.356L198.213 330.356Z"
    fill="#190066" />
  <path d="M189.954 305.58L189.954 322.098L173.436 322.098L173.436 305.58L189.954 305.58Z"
    fill="#FF8D4C" />
  <path d="M198.213 264.287L198.213 297.323L165.177 297.323L165.177 264.287L198.213 264.287Z"
    fill="#190066" />
  <path
    d="M169.339 247.767C169.339 254.592 174.871 260.124 181.696 260.124C188.521 260.124 194.053 254.592 194.053 247.767C194.053 240.942 188.521 235.41 181.696 235.41C174.871 235.41 169.339 240.942 169.339 247.767Z"
    fill="#61DFFF" />
  <path
    d="M181.695 231.247C172.573 231.247 165.177 223.851 165.177 214.729C165.177 205.606 172.573 198.211 181.695 198.211C190.818 198.211 198.213 205.606 198.213 214.729C198.213 223.851 190.818 231.247 181.695 231.247Z"
    fill="#FFF068" />
  <path d="M198.214 165.175L198.214 198.211L165.178 198.211L165.178 165.175L198.214 165.175Z"
    fill="#190066" />
  <path
    d="M148.662 396.43C139.539 396.43 132.144 389.033 132.144 379.911C132.144 370.788 139.539 363.394 148.662 363.394C157.784 363.394 165.18 370.788 165.18 379.911C165.18 389.033 157.784 396.43 148.662 396.43Z"
    fill="#FCD6FF" />
  <path d="M165.179 330.356L165.179 363.392L132.143 363.392L132.143 330.356L165.179 330.356Z"
    fill="#FF8D4C" />
  <path d="M165.18 297.323L165.18 330.359L132.144 330.359L132.144 297.323L165.18 297.323Z"
    fill="#6119EF" />
  <path
    d="M136.303 280.805C136.303 287.63 141.836 293.162 148.661 293.162C155.485 293.162 161.018 287.63 161.018 280.805C161.018 273.98 155.485 268.448 148.661 268.448C141.836 268.448 136.303 273.98 136.303 280.805Z"
    fill="#6119EF" />
  <path d="M165.18 231.249L165.18 264.285L132.144 264.285L132.144 231.249L165.18 231.249Z"
    fill="#6119EF" />
  <path d="M165.179 198.211L165.179 231.247L132.143 231.247L132.143 198.211L165.179 198.211Z"
    fill="#61DFFF" />
  <path d="M132.14 363.394L132.14 396.43L99.104 396.43L99.104 363.394L132.14 363.394Z"
    fill="#190066" />
  <path d="M132.14 330.355L132.14 363.391L99.104 363.391L99.104 330.355L132.14 330.355Z"
    fill="#6119EF" />
  <path
    d="M115.622 330.359C106.499 330.359 99.104 322.964 99.104 313.841C99.104 304.718 106.499 297.323 115.622 297.323C124.744 297.323 132.14 304.718 132.14 313.841C132.14 322.964 124.744 330.359 115.622 330.359Z"
    fill="#FFF068" />
  <path d="M132.14 231.249L132.14 264.285L99.104 264.285L99.104 231.249L132.14 231.249Z"
    fill="white" />
  <path d="M99.108 363.394L99.108 396.43L66.072 396.43L66.072 363.394L99.108 363.394Z"
    fill="#190066" />
  <path d="M99.108 330.356L99.108 363.392L66.072 363.392L66.072 330.356L99.108 330.356Z"
    fill="#190066" />
  <path d="M99.108 297.323L99.108 330.359L66.072 330.359L66.072 297.323L99.108 297.323Z"
    fill="#190066" />
  <path d="M99.109 264.287L99.109 297.323L66.073 297.323L66.073 264.287L99.109 264.287Z"
    fill="#190066" />
  <path
    d="M49.5529 396.43C40.4299 396.43 33.0349 389.033 33.0349 379.911C33.0349 370.788 40.4299 363.394 49.5529 363.394C58.6749 363.394 66.0709 370.788 66.0709 379.911C66.0709 389.033 58.6749 396.43 49.5529 396.43Z"
    fill="#FCD6FF" />
  <path
    d="M37.197 346.875C37.197 353.7 42.729 359.233 49.554 359.233C56.378 359.233 61.911 353.7 61.911 346.875C61.911 340.051 56.378 334.518 49.554 334.518C42.729 334.518 37.197 340.051 37.197 346.875Z"
    stroke="#FF8D4C" stroke-width="8.32143" />
  <path
    d="M49.5529 330.359C40.4299 330.359 33.0349 322.964 33.0349 313.841C33.0349 304.718 40.4299 297.323 49.5529 297.323C58.6749 297.323 66.0709 304.718 66.0709 313.841C66.0709 322.964 58.6749 330.359 49.5529 330.359Z"
    fill="#FFF068" />
  <path d="M33.036 363.394L33.036 396.43L1.44405e-06 396.43L0 363.394L33.036 363.394Z"
    fill="#190066" />
  <path d="M33.037 330.356L33.037 363.392L0.000978007 363.392L0.000976562 330.356L33.037 330.356Z"
    fill="#190066" />
</svg>
  